<svg width="38" height="38" viewBox="0 0 38 38" fill="none" xmlns="http://www.w3.org/2000/svg">
<g filter="url(#filter0_d_783_104)">
<rect x="1" y="1" width="34" height="34" rx="9" fill="#FFD600"/>
</g>
<path d="M15.9734 30.2441C15.0685 30.2441 14.2938 30.0521 13.6492 29.668C13.0047 29.2839 12.4741 28.6816 12.0574 27.8613L13.7566 26.7188C13.9715 27.1354 14.2514 27.4479 14.5965 27.6562C14.948 27.8581 15.3289 27.959 15.7391 27.959C16.3771 27.959 16.8556 27.7702 17.1746 27.3926C17.4936 27.015 17.6531 26.3411 17.6531 25.3711V16.5332H20.2898V25.5957C20.2898 26.4486 20.1368 27.2266 19.8309 27.9297C19.5314 28.6328 19.0626 29.196 18.4246 29.6191C17.7866 30.0358 16.9695 30.2441 15.9734 30.2441ZM26.3359 30.2441C25.4115 30.2441 24.526 30.0781 23.6797 29.7461C22.8333 29.4141 22.0814 28.9225 21.4238 28.2715L22.8496 26.543C23.3249 26.9987 23.875 27.3503 24.5 27.5977C25.1315 27.8385 25.7598 27.959 26.3848 27.959C27.1009 27.959 27.6445 27.819 28.0156 27.5391C28.3867 27.2526 28.5723 26.8717 28.5723 26.3965C28.5723 25.8887 28.3802 25.5208 27.9961 25.293C27.6185 25.0586 27.127 24.8145 26.5215 24.5605L24.7246 23.7793C24.2754 23.5905 23.8392 23.3398 23.416 23.0273C22.9993 22.7148 22.6576 22.3242 22.3906 21.8555C22.1302 21.3802 22 20.8171 22 20.166C22 19.4434 22.1986 18.7891 22.5957 18.2031C22.9928 17.6172 23.5397 17.1517 24.2363 16.8066C24.9395 16.4616 25.7402 16.2891 26.6387 16.2891C27.446 16.2891 28.2142 16.4388 28.9434 16.7383C29.6725 17.0378 30.304 17.4414 30.8379 17.9492L29.4512 19.6875C29.015 19.3359 28.556 19.0658 28.0742 18.877C27.599 18.6816 27.1204 18.584 26.6387 18.584C26.0397 18.584 25.5645 18.7109 25.2129 18.9648C24.8613 19.2188 24.6855 19.5671 24.6855 20.0098C24.6855 20.498 24.8906 20.8626 25.3008 21.1035C25.7174 21.3444 26.2122 21.582 26.7852 21.8164L28.5527 22.5293C29.3665 22.8678 30.0208 23.3203 30.5156 23.8867C31.0104 24.4531 31.2578 25.2214 31.2578 26.1914C31.2578 26.9271 31.0625 27.6042 30.6719 28.2227C30.2813 28.8346 29.7181 29.3262 28.9824 29.6973C28.2467 30.0618 27.3646 30.2441 26.3359 30.2441Z" fill="white"/>
<defs>
<filter id="filter0_d_783_104" x="0" y="0" width="38" height="38" filterUnits="userSpaceOnUse" color-interpolation-filters="sRGB">
<feFlood flood-opacity="0" result="BackgroundImageFix"/>
<feColorMatrix in="SourceAlpha" type="matrix" values="0 0 0 0 0 0 0 0 0 0 0 0 0 0 0 0 0 0 127 0" result="hardAlpha"/>
<feOffset dx="1" dy="1"/>
<feGaussianBlur stdDeviation="1"/>
<feComposite in2="hardAlpha" operator="out"/>
<feColorMatrix type="matrix" values="0 0 0 0 0 0 0 0 0 0 0 0 0 0 0 0 0 0 0.2 0"/>
<feBlend mode="normal" in2="BackgroundImageFix" result="effect1_dropShadow_783_104"/>
<feBlend mode="normal" in="SourceGraphic" in2="effect1_dropShadow_783_104" result="shape"/>
</filter>
</defs>
</svg>
