<svg width="34" height="34" viewBox="0 0 34 34" fill="none" xmlns="http://www.w3.org/2000/svg">
<rect width="34" height="34" rx="9" fill="black"/>
<path d="M10 12L8 10" stroke="white" stroke-width="2" stroke-linecap="round" stroke-linejoin="round"/>
<path d="M14 11V8" stroke="white" stroke-width="2" stroke-linecap="round" stroke-linejoin="round"/>
<path d="M18 12L20 10" stroke="white" stroke-width="2" stroke-linecap="round" stroke-linejoin="round"/>
<path d="M14 21C15.6569 21 17 19.6569 17 18C17 16.3431 15.6569 15 14 15C12.3431 15 11 16.3431 11 18C11 19.6569 12.3431 21 14 21Z" stroke="white" stroke-width="2" stroke-linecap="round" stroke-linejoin="round"/>
<path d="M16.83 17H25C25.5304 17 26.0391 17.2107 26.4142 17.5858C26.7893 17.9609 27 18.4696 27 19V23C27 23.5304 26.7893 24.0391 26.4142 24.4142C26.0391 24.7893 25.5304 25 25 25H9C8.46957 25 7.96086 24.7893 7.58579 24.4142C7.21071 24.0391 7 23.5304 7 23V19C7 18.4696 7.21071 17.9609 7.58579 17.5858C7.96086 17.2107 8.46957 17 9 17H11.17" stroke="white" stroke-width="2" stroke-linecap="round" stroke-linejoin="round"/>
<path d="M21 21H23" stroke="white" stroke-width="2" stroke-linecap="round" stroke-linejoin="round"/>
</svg>
